<?xml version="1.0" standalone="no"?>
<!DOCTYPE svg PUBLIC "-//W3C//DTD SVG 20010904//EN"
 "http://www.w3.org/TR/2001/REC-SVG-20010904/DTD/svg10.dtd">
<svg version="1.0" xmlns="http://www.w3.org/2000/svg"
 width="1079.000000pt" height="1076.000000pt" viewBox="0 0 1079.000000 1076.000000"
 preserveAspectRatio="xMidYMid meet">

<g transform="translate(0.000000,1076.000000) scale(0.100000,-0.100000)"
fill="#000000" stroke="none">
<path d="M4995 10744 c-55 -8 -158 -18 -230 -24 -121 -9 -186 -18 -307 -41
-27 -5 -69 -13 -95 -18 -165 -32 -259 -55 -403 -98 -232 -70 -315 -96 -325
-105 -5 -4 -19 -8 -31 -8 -13 0 -25 -4 -28 -9 -3 -5 -18 -12 -33 -16 -109 -27
-602 -257 -809 -377 -149 -87 -466 -294 -546 -358 -31 -25 -93 -74 -139 -110
-210 -162 -546 -479 -659 -621 -25 -30 -88 -109 -142 -175 -113 -141 -231
-300 -295 -399 -25 -38 -69 -106 -98 -151 -30 -44 -62 -96 -73 -115 -71 -127
-95 -173 -173 -329 -121 -244 -163 -335 -189 -410 -12 -36 -28 -79 -36 -97
-19 -42 -84 -220 -94 -258 -4 -16 -15 -55 -25 -85 -9 -30 -21 -73 -27 -95 -6
-22 -14 -51 -18 -65 -23 -74 -33 -117 -102 -440 -40 -188 -48 -329 -54 -880
-5 -508 0 -629 37 -885 4 -33 13 -91 18 -130 5 -38 30 -151 56 -250 57 -219
62 -242 70 -280 4 -16 10 -39 14 -50 16 -40 31 -92 31 -107 0 -8 9 -37 19 -64
11 -27 40 -105 66 -174 26 -69 55 -144 66 -167 10 -24 19 -45 19 -48 0 -14
180 -383 236 -485 20 -36 59 -103 87 -150 29 -47 61 -102 72 -122 72 -133 300
-446 494 -678 122 -145 440 -466 556 -560 44 -35 82 -67 85 -71 25 -31 556
-409 576 -409 2 0 35 -19 72 -41 256 -158 622 -337 867 -424 50 -18 122 -44
160 -58 80 -29 315 -102 360 -112 48 -10 94 -21 175 -44 41 -11 134 -30 205
-41 72 -11 153 -24 180 -29 28 -6 79 -16 115 -22 81 -15 1235 -21 1360 -7 47
5 139 20 205 33 66 13 143 26 170 30 56 7 76 11 260 55 149 36 141 34 340 96
297 92 488 170 780 316 704 353 1301 834 1796 1448 625 775 1034 1753 1148
2750 12 109 6 1174 -8 1295 -5 50 -19 142 -31 205 -11 63 -25 139 -30 167 -5
29 -16 79 -24 110 -8 32 -27 108 -41 168 -58 243 -160 545 -267 785 -11 25
-27 61 -35 80 -23 53 -169 348 -201 405 -98 177 -339 546 -398 610 -11 11 -46
56 -78 100 -165 223 -508 588 -700 745 -544 446 -1038 742 -1586 950 -19 7
-39 16 -45 20 -5 3 -30 12 -55 20 -25 7 -49 17 -54 22 -6 4 -22 8 -36 8 -15 0
-30 3 -33 7 -28 28 -498 160 -652 184 -27 4 -77 12 -110 18 -157 27 -187 31
-275 41 -330 36 -408 40 -700 39 -192 -1 -342 -7 -405 -15z m645 -1134 c601
-30 1101 -165 1649 -446 233 -119 384 -214 626 -395 200 -150 324 -261 512
-459 203 -215 316 -361 477 -618 172 -275 416 -778 416 -856 0 -20 -6 -24 -51
-29 -40 -5 -114 -33 -170 -64 -3 -2 -20 36 -39 84 -47 124 -197 428 -275 558
-37 61 -76 133 -86 161 -11 28 -32 71 -47 95 -16 24 -41 63 -56 87 -59 94
-457 505 -646 668 -398 343 -806 586 -1250 744 -234 84 -538 156 -780 186
-180 23 -766 26 -916 5 -97 -13 -105 -13 -165 7 -142 46 -211 53 -280 28 -32
-11 -104 -57 -206 -130 -18 -13 -81 -41 -140 -61 -183 -65 -333 -125 -463
-187 -189 -89 -447 -232 -520 -288 -55 -42 -70 -49 -95 -44 -76 16 -137 72
-151 139 -7 36 14 62 83 101 27 15 73 44 103 64 219 146 444 261 735 375 564
221 1105 307 1735 275z m-931 -495 c41 -29 287 -350 296 -385 6 -21 -5 -34
-72 -97 -43 -40 -85 -75 -93 -78 -9 -2 -55 6 -103 19 -87 24 -87 24 -157 6
-73 -19 -88 -14 -44 15 34 22 24 31 -15 11 -50 -26 -49 -18 4 28 53 47 56 75
4 37 -17 -13 -32 -21 -34 -19 -2 2 5 35 16 73 11 39 21 77 23 86 18 73 105
179 146 179 24 0 26 15 4 24 -22 8 -84 -20 -123 -57 -74 -70 -126 -178 -161
-333 -21 -90 -71 -193 -99 -202 -11 -4 -13 3 -7 29 4 19 18 98 31 176 27 156
77 305 130 389 72 112 180 154 254 99z m-2269 -20 c61 -32 114 -109 126 -184
5 -31 0 -55 -19 -104 -14 -35 -28 -80 -32 -100 -4 -20 -11 -37 -15 -37 -4 0
-17 48 -29 107 -27 136 -69 230 -107 239 -58 15 -98 -47 -91 -143 4 -53 15
-82 80 -205 41 -79 82 -167 91 -197 17 -57 21 -121 9 -121 -5 0 -24 28 -43 62
-19 34 -73 111 -119 172 -92 122 -115 165 -131 257 -32 174 58 290 210 272 25
-3 56 -11 70 -18z m3702 -155 c83 -23 138 -102 138 -200 0 -99 -49 -169 -143
-205 -36 -13 -52 -15 -84 -6 -97 26 -143 85 -151 191 -8 110 37 181 137 216
45 16 56 17 103 4z m-3402 -200 c23 -13 36 -59 45 -165 3 -44 19 -131 36 -194
16 -62 29 -121 29 -131 0 -33 79 -175 123 -221 24 -26 72 -65 106 -88 230
-157 494 -190 781 -100 94 30 238 102 290 145 62 53 188 192 217 242 50 84 14
64 -108 -59 -108 -109 -135 -130 -209 -166 -47 -23 -141 -57 -210 -75 -114
-30 -138 -33 -270 -33 -141 0 -148 1 -253 37 -147 51 -315 153 -369 225 -45
59 -31 85 22 42 75 -60 213 -146 275 -169 143 -55 239 -73 360 -67 133 7 281
43 380 92 69 34 165 104 302 216 37 31 110 82 161 112 80 48 103 56 163 62 56
6 74 4 94 -9 33 -22 32 -44 -2 -51 -16 -4 -35 -10 -42 -14 -37 -19 -29 -124 9
-136 11 -3 51 -3 90 1 46 4 70 3 70 -4 0 -18 -59 -61 -99 -73 -33 -10 -45 -9
-77 7 -22 11 -45 30 -52 44 -13 25 -11 101 3 148 12 37 -23 27 -71 -22 -39
-39 -44 -48 -44 -90 0 -109 90 -200 198 -199 70 1 117 20 170 68 40 36 82 121
82 166 0 11 7 22 16 26 19 7 84 -53 84 -79 0 -10 -16 -41 -35 -69 -41 -61 -44
-96 -13 -159 18 -36 31 -48 65 -59 62 -22 112 -3 189 71 44 42 68 59 80 54 12
-4 14 -12 9 -29 -4 -12 -9 -51 -12 -87 -5 -78 14 -117 71 -144 29 -13 43 -15
73 -7 51 14 104 52 134 95 26 39 40 44 58 22 9 -11 9 -25 1 -55 -12 -45 -2
-106 24 -146 15 -23 69 -45 111 -45 40 1 102 38 144 89 31 36 50 51 68 51 25
0 25 0 18 -69 -8 -83 6 -117 68 -162 38 -28 48 -30 99 -27 97 7 131 38 226
205 18 32 41 69 52 83 l19 25 63 -18 c87 -24 275 -63 450 -92 81 -14 160 -30
175 -36 17 -7 188 -14 443 -20 617 -12 688 -23 727 -105 15 -30 15 -43 4 -112
-16 -96 -45 -186 -76 -233 -123 -190 -812 -443 -1370 -504 -281 -31 -1016 -28
-1049 5 -7 7 -3 61 13 178 34 249 40 279 71 356 54 136 6 82 -79 -89 -60 -122
-93 -230 -107 -352 -6 -57 -9 -63 -30 -63 -35 0 -124 23 -124 32 0 11 35 142
72 268 16 58 57 160 90 227 71 145 73 178 6 93 -127 -158 -194 -288 -237 -455
-13 -49 -26 -93 -30 -97 -7 -7 -111 11 -123 21 -9 8 99 300 141 381 18 33 56
103 86 155 30 52 55 100 55 107 0 19 -76 -59 -151 -156 -76 -97 -135 -200
-199 -346 -23 -52 -43 -97 -45 -99 -2 -2 -24 5 -49 15 -30 12 -46 25 -46 36 0
34 138 306 234 463 53 86 95 162 94 167 -4 11 -185 -190 -254 -283 -27 -36
-78 -124 -114 -197 -36 -73 -70 -132 -76 -132 -6 0 -32 9 -58 21 -51 22 -51
19 -1 99 12 19 50 87 85 150 34 63 100 167 146 231 88 123 103 149 85 149 -20
0 -241 -235 -283 -300 -23 -36 -62 -96 -86 -135 -81 -128 -87 -135 -108 -135
-11 0 -29 6 -40 14 -18 14 -18 15 4 63 55 112 163 287 259 417 56 77 101 142
98 144 -9 9 -62 -33 -141 -112 -88 -89 -205 -241 -285 -372 -55 -90 -66 -96
-120 -68 l-30 15 22 37 c95 157 198 315 273 416 48 65 90 125 94 134 11 29
-48 -21 -153 -129 -106 -110 -179 -201 -273 -337 l-56 -84 -56 7 c-30 4 -58 9
-62 11 -4 3 25 46 64 97 38 50 89 122 113 158 24 37 79 109 123 162 44 52 88
108 98 123 l18 27 -24 -13 c-34 -18 -340 -326 -435 -437 -43 -51 -85 -94 -94
-95 -16 -4 -113 11 -120 18 -2 2 39 50 91 106 52 57 128 141 169 188 42 47 90
101 108 120 55 59 59 78 9 40 -114 -87 -251 -202 -338 -285 -108 -102 -195
-177 -225 -193 -22 -11 -101 -19 -110 -11 -2 3 101 108 230 234 284 274 300
300 79 120 -55 -44 -133 -111 -175 -150 -125 -117 -199 -173 -284 -214 -120
-60 -186 -67 -420 -47 -104 9 -235 26 -290 37 -133 26 -317 89 -441 150 -56
27 -106 49 -113 49 -15 0 -14 -23 3 -64 11 -27 29 -40 97 -73 96 -47 268 -104
381 -127 114 -24 320 -39 426 -32 50 3 92 3 92 0 0 -11 -101 -40 -204 -59 -33
-5 -38 -4 -33 9 4 9 3 16 -1 16 -38 1 -207 25 -287 41 -100 21 -309 88 -398
127 -38 17 -47 18 -47 6 0 -26 75 -89 150 -126 130 -64 222 -83 399 -83 150 0
153 0 110 -14 -30 -11 -85 -15 -174 -15 -114 1 -140 4 -210 27 -139 47 -212
93 -282 180 -69 86 -83 129 -83 250 0 77 22 236 38 277 5 14 26 90 46 169 37
144 75 239 84 212 7 -21 -17 -148 -40 -213 -11 -32 -18 -67 -15 -78 3 -14 -2
-29 -14 -41 -30 -30 -25 -82 11 -113 78 -65 371 -181 590 -233 241 -57 521
-58 652 -1 27 11 47 23 44 25 -2 2 -41 -3 -86 -11 -241 -46 -565 9 -872 148
-97 44 -210 117 -191 123 6 2 78 -25 159 -60 291 -125 412 -155 667 -164 108
-4 167 -2 167 4 0 6 -49 13 -112 17 -271 16 -545 107 -758 251 -47 31 -76 54
-65 50 11 -4 57 -20 102 -36 45 -15 126 -50 180 -78 110 -55 261 -104 373
-119 215 -30 239 -24 60 13 -158 34 -239 61 -365 121 -125 59 -195 113 -195
149 0 30 12 26 88 -23 29 -19 54 -33 57 -30 3 2 -28 26 -69 51 -91 58 -135
106 -181 196 -37 74 -75 197 -75 243 0 19 -5 28 -16 28 -14 0 -16 12 -12 93 6
123 41 248 80 287 32 33 40 35 68 20z m2468 -90 c28 -26 27 -33 0 -64 -35 -38
-324 -227 -387 -252 -66 -28 -81 -29 -81 -9 0 33 31 73 90 115 34 25 107 79
162 120 163 123 175 128 216 90z m1562 -5 c70 -36 114 -148 91 -233 -31 -113
-174 -178 -277 -126 -69 36 -109 142 -85 229 13 50 64 113 105 131 42 18 130
17 166 -1z m-3750 -164 c173 -125 302 -185 525 -243 68 -17 109 -20 265 -20
l185 1 -27 -21 c-70 -54 -280 -119 -385 -118 -61 1 -134 15 -142 28 -3 5 -42
17 -85 26 -44 9 -82 18 -84 21 -5 5 16 9 32 6 21 -4 86 11 81 19 -3 5 -31 12
-63 16 -31 4 -49 10 -38 12 20 4 -128 75 -223 107 -77 25 -132 83 -154 161
-20 70 -21 84 -6 84 5 0 59 -35 119 -79z m2416 -25 c8 -33 -23 -94 -87 -171
-27 -33 -81 -100 -121 -148 -67 -84 -73 -89 -102 -83 -40 8 -50 19 -42 48 7
28 191 276 249 336 49 50 93 58 103 18z m-226 -18 c0 -26 -57 -88 -80 -88 -9
0 -25 9 -36 21 -19 21 -19 21 21 55 48 41 95 47 95 12z m2160 -74 c74 -67 82
-192 17 -262 -52 -57 -139 -77 -197 -47 -60 31 -100 140 -80 216 25 91 73 128
167 129 47 0 58 -4 93 -36z m-1656 -76 c20 -28 5 -64 -62 -150 -27 -34 -67
-90 -89 -123 -22 -33 -50 -68 -62 -79 -19 -18 -22 -18 -47 -1 -19 12 -25 23
-22 40 8 37 130 234 179 286 49 54 79 62 103 27z m-228 -23 c16 -24 15 -27 -7
-60 -13 -19 -32 -38 -42 -41 -17 -5 -47 11 -47 25 0 14 60 101 70 101 5 0 17
-11 26 -25z m-3174 -109 c-2 -21 -14 -74 -28 -119 -13 -45 -40 -143 -60 -217
-38 -143 -67 -207 -164 -369 -165 -276 -329 -653 -419 -966 -64 -222 -144
-613 -158 -775 l-8 -84 -75 -28 c-41 -15 -84 -32 -95 -37 -36 -17 -83 -29 -89
-24 -10 10 -7 80 9 197 8 61 19 152 25 201 19 160 139 624 227 880 70 201 216
514 346 740 180 313 438 657 482 642 5 -2 9 -21 7 -41z m3703 -26 c18 -19 17
-22 -19 -95 -55 -111 -150 -235 -180 -235 -23 0 -56 23 -56 38 0 4 16 34 35
67 19 33 50 89 69 125 58 111 110 145 151 100z m-226 -34 c34 -36 12 -96 -35
-96 -36 0 -56 56 -38 104 9 24 47 19 73 -8z m581 -95 c5 -11 10 -31 10 -44 0
-57 -143 -288 -183 -295 -24 -5 -47 16 -47 42 0 26 102 238 136 284 29 37 67
43 84 13z m-217 -38 c44 -19 48 -43 11 -72 -46 -36 -65 -37 -96 -2 -32 35 -35
62 -12 86 17 17 33 15 97 -12z m2370 -515 c24 -50 33 -162 18 -240 -22 -114
-78 -213 -183 -320 -118 -120 -171 -165 -333 -273 -250 -168 -572 -303 -950
-399 -121 -31 -285 -67 -365 -81 -80 -13 -155 -27 -167 -31 -30 -8 -30 10 0
40 18 18 52 28 172 50 342 63 548 121 835 234 257 101 417 186 571 303 67 51
145 136 135 146 -2 2 -33 -17 -69 -42 -204 -143 -627 -334 -932 -421 -250 -72
-304 -85 -455 -109 -85 -14 -185 -30 -222 -37 -58 -10 -74 -10 -123 6 -48 15
-69 16 -173 7 -123 -11 -243 -4 -249 15 -4 13 20 21 100 30 31 4 54 11 51 16
-4 6 -71 7 -167 3 -180 -8 -244 -2 -462 46 -178 38 -281 69 -409 123 -55 24
-171 73 -256 109 -302 128 -458 179 -603 197 -121 15 -351 8 -457 -15 -69 -15
-326 -100 -580 -191 -99 -36 -113 -39 -241 -42 -116 -3 -148 -1 -213 17 -103
28 -205 81 -269 139 -28 26 -70 58 -92 72 -102 62 -226 193 -246 261 -10 32
-9 42 12 78 12 23 28 41 34 41 6 0 33 -23 60 -51 72 -74 203 -174 273 -209 33
-16 100 -42 148 -56 77 -23 107 -27 219 -27 151 -1 227 16 490 108 460 161
721 184 1045 90 112 -33 180 -59 415 -160 248 -107 400 -158 670 -224 300 -74
412 -86 770 -86 306 1 377 6 695 51 424 59 903 221 1159 392 160 105 197 160
242 351 32 136 65 165 102 89z m-6273 -633 c52 -41 111 -88 130 -105 l35 -30
-30 12 c-54 22 -219 120 -247 146 -16 14 -28 32 -28 39 0 31 50 9 140 -62z
m-102 -50 c75 -59 172 -108 287 -145 111 -35 173 -61 186 -76 16 -20 -11 -18
-118 6 -164 38 -365 124 -433 186 -42 38 -48 52 -28 72 19 19 31 15 106 -43z
m-46 -114 c115 -69 266 -137 363 -163 38 -10 119 -21 178 -25 94 -5 110 -9
125 -28 20 -25 179 -167 237 -212 22 -16 60 -41 85 -53 65 -33 31 -37 -54 -6
-123 46 -171 75 -237 143 -35 36 -73 69 -84 73 -11 4 -60 13 -108 19 -137 18
-247 55 -408 137 -147 75 -219 126 -219 158 0 26 19 19 122 -43z m1751 -8 c-7
-2 -21 -2 -30 0 -10 3 -4 5 12 5 17 0 24 -2 18 -5z m164 -9 c-3 -3 -12 -4 -19
-1 -8 3 -5 6 6 6 11 1 17 -2 13 -5z m136 -2 c-32 -10 -118 -77 -183 -144 -30
-31 -67 -59 -81 -62 -32 -7 -72 -43 -94 -87 l-18 -33 -31 37 c-17 20 -36 37
-43 37 -11 0 -59 36 -142 107 -24 21 -54 44 -67 51 -28 15 -31 27 -8 36 38 15
66 5 101 -34 20 -22 44 -40 54 -40 11 0 19 -9 21 -22 2 -16 11 -24 29 -26 23
-3 31 4 51 40 20 37 28 43 60 46 28 2 45 13 72 43 37 41 56 49 56 25 0 -18
-77 -86 -152 -134 -60 -39 -69 -56 -40 -78 24 -18 39 -17 60 4 34 34 206 159
243 176 20 9 47 28 60 42 13 14 33 24 48 23 25 -1 25 -1 4 -7z m-2167 -33 c43
-46 174 -123 293 -173 98 -42 253 -80 403 -101 34 -4 49 -11 53 -25 3 -11 36
-46 72 -80 77 -70 67 -75 -52 -25 -46 19 -123 45 -172 59 -117 33 -181 56
-283 101 -122 54 -341 173 -369 201 -23 21 -24 26 -11 49 17 33 30 32 66 -6z
m2303 -26 c-34 -32 -97 -101 -139 -153 -84 -103 -117 -136 -126 -127 -7 7 152
221 192 258 40 38 104 79 121 79 8 0 -14 -26 -48 -57z m5254 36 c50 -38 82
-217 57 -317 -25 -108 -117 -182 -223 -182 -42 0 -54 5 -83 34 -19 19 -34 44
-34 58 0 28 28 82 74 142 55 72 60 140 10 152 -39 10 -73 -4 -124 -52 -107
-100 -129 -219 -66 -349 39 -82 75 -129 224 -288 161 -173 210 -278 199 -431
-7 -110 -72 -242 -158 -325 -124 -118 -261 -176 -411 -175 -109 1 -175 30
-242 105 -25 28 -50 48 -56 44 -6 -3 -27 -32 -46 -63 -62 -96 -194 -216 -292
-265 -83 -41 -89 -42 -181 -42 -91 0 -100 2 -161 35 -141 76 -208 240 -211
520 l-1 85 -19 -65 c-137 -455 -203 -599 -336 -732 -145 -147 -313 -184 -465
-105 -103 54 -159 163 -179 349 -17 163 -1 299 66 568 51 200 81 272 167 397
121 175 291 294 422 295 84 0 168 -28 220 -73 89 -78 124 -204 127 -449 1
-114 3 -136 10 -105 89 379 125 477 231 631 117 171 265 274 401 282 97 6 152
-12 207 -68 56 -55 75 -113 73 -220 -4 -174 -72 -336 -191 -457 -111 -113
-315 -243 -382 -243 -44 0 -50 -16 -50 -127 0 -141 13 -195 59 -244 34 -35 43
-39 87 -39 131 1 257 126 431 429 91 156 109 181 162 213 49 31 142 31 173 1
l22 -23 -22 -27 c-12 -16 -38 -57 -57 -93 -19 -36 -48 -90 -65 -120 -36 -66
-38 -112 -7 -157 67 -100 264 -40 331 101 69 145 34 285 -110 448 -41 46 -104
117 -140 158 -126 143 -169 282 -130 414 36 118 176 273 308 340 84 42 136 53
264 55 78 1 95 -2 117 -20z m-5809 -11 c22 -31 20 -55 -4 -63 -23 -7 -40 1
-40 19 0 7 -16 20 -36 29 -44 22 -36 37 21 37 34 0 47 -5 59 -22z m756 8 c0
-11 -281 -289 -286 -283 -7 7 116 156 172 208 66 61 114 92 114 75z m130 -39
c0 -2 -61 -66 -135 -143 -168 -173 -186 -152 -21 25 65 69 156 138 156 118z
m-1188 -73 c23 -20 53 -41 65 -47 13 -5 29 -20 37 -32 8 -12 45 -42 83 -68 83
-56 173 -144 132 -128 -62 23 -156 81 -231 141 -44 36 -99 77 -122 93 -55 37
-70 53 -62 66 14 21 55 11 98 -25z m1203 -89 c-109 -108 -149 -138 -113 -83
46 68 212 218 226 203 2 -2 -49 -56 -113 -120z m-2684 89 c38 -42 199 -164
250 -189 107 -55 230 -98 392 -140 142 -36 201 -46 337 -56 185 -13 434 -5
580 20 30 5 107 13 170 16 167 10 129 -9 -57 -29 -84 -9 -174 -21 -200 -26
-160 -32 -568 -16 -797 31 -97 20 -271 76 -371 119 -125 54 -291 173 -321 232
-22 43 -26 30 -9 -28 32 -110 118 -195 275 -274 224 -112 596 -180 980 -180
162 0 708 61 1015 114 173 29 370 52 603 68 236 17 577 -11 577 -47 0 -18 -67
-23 -188 -13 -67 5 -219 8 -337 5 -227 -5 -381 -23 -790 -91 -113 -19 -333
-49 -490 -66 -259 -29 -304 -32 -485 -27 -289 8 -522 43 -720 108 -256 83
-385 172 -460 318 -28 55 -18 161 14 161 4 0 18 -12 32 -26z m1420 -102 c74
-59 165 -130 204 -157 80 -57 69 -74 -20 -30 -112 54 -385 272 -362 287 26 17
49 4 178 -100z m653 37 c-34 -52 -54 -71 -54 -52 0 15 81 116 87 109 2 -2 -13
-27 -33 -57z m801 -5 c-85 -79 -157 -136 -163 -129 -13 13 181 185 208 184 8
0 -12 -25 -45 -55z m-1675 6 c47 -52 165 -148 263 -214 54 -36 91 -66 82 -66
-32 0 -143 50 -200 89 -93 65 -256 211 -249 222 11 19 77 -1 104 -31z m-221
20 c21 -6 70 -45 135 -107 65 -63 131 -115 183 -146 45 -26 85 -52 88 -58 13
-20 -158 52 -210 88 -67 48 -255 213 -255 225 0 11 18 10 59 -2z m2026 -51
c-43 -43 -127 -109 -141 -109 -15 0 80 92 125 121 25 16 47 29 50 29 3 0 -13
-18 -34 -41z m155 -7 c0 -7 -85 -71 -129 -97 -35 -20 -1 18 53 59 57 45 76 54
76 38z m-1218 -34 c-7 -7 -12 -8 -12 -2 0 14 12 26 19 19 2 -3 -1 -11 -7 -17z
m-43 -74 c-13 -25 -29 -32 -29 -14 0 6 8 22 17 37 21 31 31 12 12 -23z m70 5
c-19 -12 -24 -2 -8 17 9 11 14 13 17 4 3 -7 -2 -16 -9 -21z m2205 -169 c29
-27 -314 -55 -374 -30 -25 10 -38 25 -27 31 1 1 56 5 122 8 133 7 265 3 279
-9z m279 8 c2 -7 -6 -56 -19 -108 -30 -123 -86 -451 -78 -459 3 -3 15 8 27 24
49 67 90 103 154 136 130 66 261 39 312 -65 36 -71 32 -151 -17 -391 -22 -110
-52 -270 -66 -355 -14 -85 -37 -213 -51 -285 -13 -71 -25 -157 -25 -189 0 -60
0 -60 56 -114 66 -64 67 -82 6 -129 -105 -80 -255 -68 -316 24 -41 62 -52 135
-38 255 15 136 122 700 171 908 48 201 18 254 -84 147 -118 -126 -173 -273
-241 -652 -61 -338 -99 -541 -123 -655 -12 -52 -21 -114 -21 -136 0 -23 -6
-46 -12 -52 -7 -5 -72 -29 -145 -52 l-132 -43 -21 -51 c-32 -74 -107 -203
-151 -259 -87 -110 -226 -198 -424 -268 -80 -29 -102 -32 -200 -32 -93 0 -121
4 -181 25 -92 33 -140 64 -197 127 -59 66 -101 152 -123 248 -29 130 -1 264
93 445 58 113 167 230 253 271 78 38 186 53 255 38 70 -16 117 -54 113 -90 -3
-24 -13 -29 -105 -59 -84 -28 -112 -42 -153 -79 -109 -98 -162 -223 -164 -383
-1 -88 1 -100 31 -160 67 -135 182 -173 345 -113 62 22 84 37 143 97 75 76
118 148 156 261 20 58 24 90 24 185 0 194 -33 262 -263 548 -220 276 -269 364
-292 532 -34 251 97 520 329 676 171 115 422 127 568 28 102 -70 137 -153 131
-307 -3 -88 -7 -110 -33 -162 -35 -72 -143 -182 -209 -213 -88 -42 -203 -24
-249 39 -27 37 -17 57 58 118 132 105 193 221 182 349 -4 50 -10 70 -29 89
-54 54 -164 35 -266 -48 -92 -74 -150 -185 -172 -327 -12 -73 3 -180 36 -259
28 -67 118 -195 223 -318 173 -203 270 -357 315 -505 30 -94 26 -87 36 -70 4
8 13 58 19 110 12 99 47 299 106 605 43 221 145 840 145 877 0 16 -9 33 -21
42 -31 21 -19 39 42 60 30 10 91 41 137 68 116 69 146 79 155 56z m3467 -471
c43 -57 77 -142 91 -226 16 -103 -6 -208 -82 -392 -74 -181 -229 -341 -511
-527 -193 -129 -462 -248 -843 -374 -107 -35 -484 -132 -770 -197 -389 -89
-536 -124 -670 -161 -77 -21 -192 -50 -255 -65 -63 -15 -200 -51 -305 -80
-504 -141 -687 -178 -701 -142 -9 23 93 212 134 249 48 44 190 99 472 184 201
61 405 124 580 179 73 23 334 94 415 113 22 6 146 38 275 72 129 34 350 91
490 126 624 160 1020 286 1184 378 314 177 445 380 446 691 0 74 -5 105 -29
172 -16 45 -26 85 -23 88 9 9 65 -39 102 -88z m-6740 73 c0 -6 -11 -52 -25
-103 -38 -138 -101 -417 -125 -547 -12 -63 -42 -221 -66 -350 -68 -355 -136
-754 -165 -974 -26 -198 5 -421 67 -496 54 -63 102 -73 206 -40 88 28 116 26
124 -5 8 -34 -16 -69 -74 -106 -75 -47 -143 -64 -267 -64 -100 0 -115 2 -167
28 -91 45 -146 117 -184 242 -14 46 -19 92 -18 200 0 171 29 369 113 790 11
55 41 212 66 349 26 137 55 283 66 325 22 88 23 99 9 85 -10 -10 -28 -57 -175
-459 -42 -115 -105 -286 -140 -380 -34 -93 -66 -181 -70 -195 -4 -14 -45 -122
-90 -240 -46 -118 -108 -296 -139 -396 -31 -99 -65 -202 -75 -230 -26 -67 -49
-70 -106 -11 -54 57 -71 123 -87 345 -16 216 4 973 32 1231 11 102 17 187 15
189 -13 13 -46 -125 -120 -498 -25 -129 -62 -316 -82 -415 -20 -99 -44 -223
-54 -275 -10 -52 -28 -140 -39 -195 -12 -55 -30 -147 -40 -205 -10 -58 -33
-177 -49 -265 -17 -88 -31 -188 -31 -222 0 -52 -3 -64 -20 -73 -32 -17 -253
-78 -266 -73 -21 8 -22 25 -6 128 24 161 186 962 216 1070 17 59 102 425 111
475 3 19 21 105 40 190 85 387 152 747 141 757 -9 9 -131 -34 -194 -69 -31
-18 -96 -71 -143 -118 -69 -68 -94 -102 -129 -173 -37 -75 -44 -98 -48 -165
-8 -147 40 -238 156 -293 26 -12 48 -23 50 -25 9 -6 -31 -66 -53 -80 -20 -13
-42 -16 -104 -12 -93 5 -150 33 -221 108 -105 110 -137 254 -89 402 57 178
226 361 424 461 169 84 277 107 552 114 l221 6 26 -26 c33 -33 33 -56 7 -492
-11 -176 -22 -408 -26 -515 -3 -107 -8 -248 -11 -312 -3 -67 -2 -118 3 -118 5
0 19 33 32 73 12 39 42 117 66 172 24 55 70 163 103 240 33 77 92 211 131 297
39 86 71 159 71 162 0 3 19 48 41 98 23 51 57 129 77 173 19 44 55 123 80 175
24 52 57 133 72 179 15 46 34 87 41 91 8 4 37 10 65 14 28 3 87 17 130 30 84
26 144 33 144 16z m1740 -215 c0 -3 -19 -36 -41 -73 -94 -151 -130 -215 -214
-377 -49 -93 -113 -210 -143 -260 -106 -174 -99 -155 -80 -229 10 -36 36 -114
59 -173 55 -143 56 -152 25 -201 -14 -23 -44 -90 -67 -149 -36 -96 -41 -117
-40 -190 2 -166 -47 -101 -130 174 -47 156 -79 243 -88 243 -4 0 -40 -69 -81
-152 -41 -84 -117 -231 -169 -326 l-94 -173 -61 -30 c-33 -16 -80 -41 -103
-55 l-43 -25 0 34 0 35 -60 -40 c-76 -50 -200 -103 -279 -119 -72 -14 -129 -7
-196 25 -175 81 -229 305 -175 717 27 202 52 310 91 406 99 239 229 396 396
475 101 49 173 58 259 33 147 -42 193 -123 173 -305 -23 -200 -83 -316 -253
-486 -101 -100 -245 -190 -343 -214 l-41 -10 -7 -65 c-9 -78 8 -233 29 -274
35 -67 111 -90 189 -57 111 46 245 202 343 397 60 120 90 159 123 159 24 0 8
-115 -28 -194 -17 -38 -31 -73 -31 -78 0 -26 27 15 74 111 28 58 70 135 93
171 23 36 62 111 88 167 l48 103 -63 182 c-69 203 -145 373 -180 406 -14 13
-43 24 -72 28 -50 7 -63 25 -30 43 10 5 65 19 123 31 57 11 144 32 193 46 108
32 103 36 139 -109 30 -116 98 -308 112 -310 5 -1 29 43 55 98 25 55 91 187
147 294 l101 194 104 54 c90 46 148 65 148 48z m-3454 -622 c-3 -16 -10 -65
-17 -111 -6 -45 -15 -85 -20 -87 -26 -16 -40 106 -18 162 21 57 65 85 55 36z
m8028 -664 c-68 -315 -175 -604 -363 -979 -81 -162 -179 -330 -256 -440 -25
-36 -64 -93 -87 -127 -24 -35 -45 -63 -49 -63 -8 0 -46 128 -59 199 -5 29 -17
76 -25 103 -14 49 -14 50 10 72 14 13 25 27 25 33 0 5 20 41 44 81 156 252
373 712 451 954 l43 133 53 19 c30 10 92 43 139 71 47 29 88 53 91 54 4 1 -4
-49 -17 -110z m-810 -632 c31 -42 33 -139 4 -198 -28 -56 -150 -228 -162 -229
-18 0 6 66 65 185 53 105 61 128 55 158 -4 19 -13 40 -21 47 -38 31 -83 -31
-106 -147 -7 -35 -16 -63 -20 -63 -4 0 -14 29 -23 63 -18 74 -12 110 30 164
32 42 56 53 113 50 35 -2 48 -8 65 -30z m-1032 -104 c50 -54 48 -107 -6 -167
-25 -27 -42 -36 -65 -36 -17 0 -31 2 -31 4 0 2 -2 10 -5 18 -4 10 4 13 32 10
23 -2 46 3 58 12 19 13 16 15 -44 22 -81 9 -106 30 -97 83 12 78 106 109 158
54z m-1963 -47 c41 -30 56 -50 82 -106 25 -54 71 -222 63 -229 -11 -11 -64 59
-64 83 0 57 -66 171 -108 187 -33 13 -41 3 -10 -12 14 -6 35 -29 47 -50 23
-41 22 -46 -9 -29 -19 10 -19 10 -1 -22 11 -18 22 -48 26 -65 7 -36 2 -39 -58
-34 -16 2 -50 -3 -77 -9 -44 -11 -52 -9 -99 14 -35 18 -51 32 -51 46 0 29 120
201 159 227 43 29 59 29 100 -1z m1425 -20 c19 -14 44 -39 55 -55 24 -33 91
-257 91 -302 0 -43 -16 -27 -30 28 -11 47 -39 108 -40 88 0 -6 4 -25 9 -43 6
-18 6 -30 1 -27 -5 3 -22 47 -40 99 -31 95 -61 137 -107 150 -13 4 -30 3 -40
-3 -15 -8 -11 -12 25 -26 26 -11 48 -28 57 -46 21 -40 20 -52 -4 -39 -34 17
-34 11 -2 -19 17 -16 31 -39 31 -51 0 -19 -4 -21 -29 -15 -45 10 -46 -10 -1
-24 63 -19 58 -31 -15 -31 -36 0 -82 -7 -102 -15 -51 -22 -73 -19 -129 16 -47
30 -64 46 -64 61 0 14 153 234 182 262 27 24 37 28 74 23 26 -2 58 -15 78 -31z
m-2599 -76 c20 -28 67 -71 104 -97 36 -26 68 -48 70 -50 15 -11 -37 -30 -185
-68 -281 -73 -751 -234 -1049 -360 -60 -25 -141 -59 -180 -75 -832 -346 -939
-387 -1135 -431 -90 -20 -132 -24 -295 -24 -200 0 -277 12 -396 63 -96 41
-206 159 -233 249 -6 19 0 18 70 -18 111 -55 203 -74 354 -73 132 1 161 6 367
68 136 40 250 84 458 176 247 109 507 211 661 259 55 18 141 55 190 82 148 84
432 194 629 244 50 13 131 35 180 49 109 31 232 54 302 55 50 1 52 0 88 -49z
m3887 -6 c21 -36 39 -222 21 -211 -7 4 -17 -20 -28 -63 -37 -152 -132 -306
-230 -371 -35 -24 -65 -47 -65 -51 0 -9 100 34 132 56 12 9 32 16 43 16 20 -1
20 -1 0 -16 -32 -26 -122 -63 -163 -69 -47 -5 -243 -53 -250 -60 -9 -8 16 -6
164 15 76 10 162 26 189 34 118 37 106 1 -13 -38 -67 -22 -226 -58 -357 -81
-37 -7 -38 -8 -16 -16 47 -18 293 16 417 57 42 14 78 23 81 21 2 -3 -28 -21
-69 -41 -85 -42 -225 -75 -316 -76 -40 0 -61 -4 -57 -10 4 -6 -9 -10 -32 -9
-34 1 -35 2 -13 9 18 6 4 8 -50 10 -41 1 -99 5 -127 9 -61 9 -71 -3 -15 -18
163 -44 222 -53 327 -52 61 1 134 5 163 10 28 4 52 5 52 1 0 -16 -85 -32 -200
-37 -120 -5 -131 -3 -265 31 -79 21 -162 49 -192 66 -62 35 -73 37 -47 9 25
-28 96 -63 169 -84 33 -10 71 -23 85 -31 50 -27 137 -46 235 -51 117 -6 217
10 393 63 63 19 117 33 119 30 2 -2 -6 -7 -19 -11 -13 -4 -61 -22 -108 -40
-47 -19 -130 -41 -185 -51 -179 -30 -416 -2 -567 68 -38 17 -77 31 -86 31 -9
0 -37 16 -62 36 -73 60 -153 117 -190 135 -32 16 -31 13 20 -36 86 -82 223
-207 244 -222 17 -12 14 -14 -34 -20 l-53 -7 -76 74 c-72 70 -224 192 -270
216 -20 11 -31 -1 -12 -13 4 -3 68 -68 140 -145 l133 -140 -34 -17 -34 -16
-94 93 c-126 122 -247 229 -261 229 -8 0 -8 -4 -2 -12 6 -7 60 -80 122 -162
98 -131 128 -186 104 -186 -5 0 -17 -3 -28 -6 -17 -4 -36 14 -100 92 -159 193
-196 234 -210 234 -8 0 -15 -4 -15 -8 0 -5 47 -79 105 -166 58 -87 105 -167
105 -177 0 -10 -9 -23 -19 -29 -22 -11 -17 -15 -118 120 -78 105 -177 214
-181 202 -2 -6 20 -46 49 -88 63 -94 139 -245 139 -278 0 -13 -7 -26 -15 -30
-15 -6 -20 1 -68 85 -40 71 -197 269 -213 269 -17 0 -1 -32 68 -140 46 -72
108 -211 108 -241 0 -34 -30 -20 -58 27 -96 164 -212 317 -228 301 -3 -3 8
-32 26 -64 88 -157 148 -270 154 -290 5 -16 2 -25 -12 -32 -24 -13 -29 -7 -69
67 -37 70 -196 287 -201 274 -1 -5 20 -52 47 -103 65 -123 126 -278 113 -291
-15 -15 -30 -2 -59 55 -36 72 -165 268 -191 291 -36 32 -35 12 4 -54 42 -72
119 -244 129 -289 5 -23 2 -32 -14 -40 -32 -18 -37 -14 -57 52 -18 61 -131
246 -169 277 -17 14 -18 13 -13 -10 4 -14 26 -73 51 -131 48 -113 74 -207 64
-233 -4 -9 -15 -16 -25 -16 -13 0 -29 24 -57 88 -60 134 -136 254 -152 238 -3
-2 11 -44 30 -93 51 -128 77 -209 77 -237 0 -22 -6 -26 -45 -32 -25 -3 -48 -4
-51 -1 -3 3 -21 58 -40 123 -20 66 -40 123 -45 129 -16 16 -10 -115 8 -192 9
-40 14 -75 11 -78 -3 -3 -48 -11 -99 -16 -119 -14 -422 -5 -554 15 -214 34
-420 110 -547 203 -51 38 -59 48 -76 105 -36 119 -37 135 -4 167 39 39 78 48
285 66 188 16 422 47 524 71 34 8 108 31 163 50 55 20 102 35 103 33 64 -89
114 -153 130 -164 12 -8 41 -15 65 -15 38 0 50 6 83 39 34 34 39 45 39 85 0
25 5 46 10 46 6 0 29 -9 52 -21 31 -16 54 -20 90 -17 64 7 84 27 93 94 4 36
12 57 22 61 8 3 38 -6 67 -20 43 -22 57 -25 91 -17 51 11 81 46 89 104 4 25 9
46 12 46 3 0 22 -11 42 -25 48 -33 92 -32 131 1 38 31 41 75 11 135 -21 41
-18 62 14 88 13 11 19 5 39 -41 33 -74 69 -101 126 -95 24 3 55 13 70 24 38
28 64 87 57 127 -8 41 -32 64 -48 48 -7 -7 -19 -7 -33 -2 -23 9 -61 4 -80 -10
-31 -23 -266 82 -324 144 -23 24 -24 28 -9 43 16 15 20 15 60 -1 24 -9 87 -48
140 -86 l98 -71 30 22 c22 17 43 22 87 22 53 0 74 -8 251 -96 224 -111 294
-132 432 -125 83 4 95 7 189 55 55 28 125 70 155 93 70 51 148 161 177 248 30
90 67 175 82 184 22 15 51 3 69 -28z m-202 -124 c0 -16 -64 -112 -91 -136 -13
-12 -87 -54 -164 -93 -125 -62 -141 -79 -55 -55 9 2 7 -2 -5 -11 -32 -25 -125
-48 -195 -48 -74 0 -167 24 -201 52 l-24 19 55 6 c30 3 83 8 117 11 128 12
280 78 448 194 103 72 115 78 115 61z m-2798 -76 c117 -66 152 -104 97 -104
-22 0 -128 52 -171 83 -32 24 -38 57 -9 57 11 0 48 -16 83 -36z m291 -74 c57
-21 90 -50 101 -87 15 -49 168 -148 269 -173 26 -7 47 -16 47 -21 0 -4 -22
-16 -50 -26 -32 -11 -50 -23 -50 -34 0 -26 -35 -63 -73 -77 -30 -11 -41 -10
-86 7 l-50 20 6 -30 c6 -31 -6 -48 -34 -49 -6 0 -41 25 -77 56 -37 31 -69 54
-73 51 -3 -4 12 -27 33 -53 76 -90 79 -104 21 -104 -27 0 -44 12 -97 65 -61
62 -80 75 -80 57 0 -4 23 -34 50 -67 53 -63 59 -79 34 -89 -35 -13 -55 -4
-100 49 -51 59 -92 78 -54 26 11 -17 27 -45 35 -64 13 -31 13 -37 0 -47 -23
-19 -58 -5 -114 46 -54 49 -67 44 -26 -10 34 -44 32 -62 -7 -70 -30 -6 -37 -3
-75 41 -23 26 -45 44 -49 40 -5 -4 -3 -16 4 -25 30 -42 36 -63 21 -73 -27 -17
-61 -9 -89 21 -36 38 -41 38 -29 -2 5 -18 9 -34 9 -35 0 -10 -80 0 -96 12 -26
20 -34 19 -34 -5 0 -18 -7 -20 -54 -20 -82 0 -191 -32 -312 -91 -138 -68 -158
-94 -174 -223 -6 -49 -8 -102 -5 -117 6 -28 6 -29 -37 -29 -80 1 -242 20 -383
45 -223 40 -420 118 -483 189 -30 34 -72 147 -72 193 0 24 24 47 65 63 17 7
120 16 230 21 254 11 381 29 573 79 84 22 158 40 165 40 7 0 23 -21 36 -46 49
-91 135 -127 201 -82 25 17 36 32 38 53 7 83 23 93 74 50 36 -30 57 -31 107
-5 45 23 53 38 45 90 -9 53 10 60 51 20 31 -30 38 -32 80 -28 58 7 82 28 90
81 9 49 22 77 36 77 6 0 24 -11 41 -25 37 -32 84 -32 129 -2 45 31 56 65 40
125 -18 66 -18 76 1 80 11 2 23 -8 34 -30 29 -58 54 -78 95 -78 74 0 119 41
119 108 0 79 -93 112 -144 51 -14 -17 -24 -35 -20 -40 9 -15 68 -10 92 7 27
19 36 14 27 -15 -8 -27 -55 -52 -84 -44 -33 8 -54 57 -46 105 6 32 13 42 39
54 42 18 56 17 119 -6z m-312 -51 c20 -29 20 -32 5 -47 -15 -16 -17 -15 -22 6
-4 13 -14 22 -25 22 -12 0 -19 7 -19 18 0 42 31 43 61 1z m-62 -92 c45 -48 81
-93 78 -100 -9 -28 -39 -14 -108 48 -48 42 -80 64 -91 61 -12 -3 -18 2 -18 14
0 19 38 73 49 68 4 -2 45 -43 90 -91z m644 18 c60 -33 60 -33 77 -13 16 20 20
20 133 8 121 -13 135 -20 101 -54 -19 -19 -25 -19 -139 -3 -49 8 -102 14 -117
14 -32 1 -142 51 -178 81 l-25 21 44 -10 c25 -6 72 -25 104 -44z m622 37 c6
-4 32 -38 57 -77 26 -38 65 -88 87 -110 43 -41 51 -62 27 -71 -25 -10 -71 23
-154 111 -82 86 -97 116 -70 143 13 13 38 15 53 4z m143 -18 c18 -8 32 -17 32
-19 0 -14 -14 -35 -23 -35 -16 0 -57 41 -57 57 0 17 10 16 48 -3z m1773 -31
c40 -91 89 -309 89 -394 0 -79 -18 -149 -39 -149 -14 0 -14 17 -2 25 10 5 5
130 -5 147 -3 4 -7 39 -9 77 -3 38 -13 96 -24 128 -18 54 -51 188 -51 206 0 4
5 7 10 7 6 0 20 -21 31 -47z m-6252 6 c35 -35 39 -59 14 -81 -24 -20 -134 -78
-149 -78 -14 0 -76 92 -78 116 -1 17 120 73 161 73 12 1 35 -13 52 -30z m4831
-38 c0 -5 -12 -23 -26 -40 -20 -24 -34 -31 -63 -31 -40 0 -61 14 -61 41 0 15
7 17 53 12 41 -4 56 -2 66 11 15 18 31 21 31 7z m-2710 -15 c16 -20 9 -56 -13
-70 -21 -13 -37 5 -37 45 0 40 26 53 50 25z m687 -30 c16 -13 38 -44 51 -69
22 -44 30 -107 13 -107 -5 0 -36 28 -70 63 -48 48 -61 69 -61 93 0 51 22 58
67 20z m1392 -52 c17 -37 45 -82 61 -101 32 -35 34 -42 24 -67 -11 -30 -42
-16 -81 37 -73 96 -103 177 -70 190 28 12 37 4 66 -59z m-2349 19 c25 -32 21
-76 -8 -106 -23 -23 -41 -15 -69 28 -27 41 -28 53 -7 83 21 30 58 28 84 -5z
m1070 7 c0 -12 -28 -25 -36 -17 -9 9 6 27 22 27 8 0 14 -5 14 -10z m3151 -41
c-13 -10 -28 -19 -35 -19 -6 0 3 11 19 24 17 13 32 22 35 19 3 -2 -6 -13 -19
-24z m-3441 -75 c14 -29 31 -59 39 -68 17 -20 7 -46 -18 -46 -21 0 -101 110
-101 139 0 54 49 38 80 -25z m90 48 c0 -16 -52 -34 -64 -22 -8 8 -7 13 4 20
19 12 60 13 60 2z m1380 -41 c11 -35 11 -41 -11 -70 -24 -33 -41 -37 -86 -20
-48 18 -46 31 9 81 29 26 58 48 64 48 6 0 17 -17 24 -39z m1990 25 c0 -3 -4
-8 -10 -11 -5 -3 -10 -1 -10 4 0 6 5 11 10 11 6 0 10 -2 10 -4z m-3542 -73
c-4 -21 -67 -65 -87 -61 -29 6 -25 45 6 62 40 22 85 21 81 -1z m1359 -20 c9
-16 37 -54 60 -85 70 -92 59 -100 -43 -30 -59 40 -69 52 -72 81 -6 65 24 83
55 34z m-1507 -39 c14 -29 31 -59 39 -68 16 -18 8 -46 -13 -46 -19 0 -95 87
-102 117 -9 34 2 55 28 51 16 -2 30 -18 48 -54z m1296 -101 c20 -32 46 -68 57
-80 11 -12 17 -29 14 -37 -17 -44 -87 8 -127 94 -43 93 1 111 56 23z m142 31
c4 -26 -30 -56 -60 -52 -32 4 -36 41 -6 62 30 21 62 17 66 -10z m2260 -67
c-41 -33 -171 -76 -142 -47 9 9 150 68 164 69 3 0 -7 -10 -22 -22z m-330 -54
c-10 -2 -26 -2 -35 0 -10 3 -2 5 17 5 19 0 27 -2 18 -5z m492 -67 c0 -6 -103
-72 -148 -95 -98 -50 -291 -65 -444 -34 -89 17 -159 42 -123 43 11 0 56 -7
100 -16 44 -8 134 -16 200 -17 138 -2 181 9 315 78 81 42 100 49 100 41z
m-5670 -74 c-11 -13 -37 -36 -58 -49 -21 -14 -39 -31 -39 -39 0 -17 50 3 113
46 25 16 49 30 55 30 18 0 255 -208 284 -249 30 -45 216 -213 302 -275 79 -56
307 -146 628 -245 244 -76 572 -152 840 -195 172 -28 606 -57 940 -63 332 -6
378 -3 630 42 44 8 152 22 240 30 88 9 187 20 220 25 81 13 165 13 145 0 -13
-9 -172 -61 -485 -160 -171 -54 -431 -103 -760 -142 -69 -8 -221 -13 -410 -12
-265 0 -325 4 -510 28 -429 55 -716 130 -1079 281 -272 113 -531 250 -716 380
-41 29 -106 73 -144 99 -130 89 -339 282 -422 391 -32 43 -33 41 66 80 36 14
81 34 100 45 35 18 35 18 57 -2 22 -21 22 -21 3 -46z m5842 51 c10 -9 18 -23
18 -32 -1 -58 -246 -280 -373 -337 -132 -60 -208 -62 -412 -11 -193 49 -271
60 -405 54 -190 -7 -308 -46 -640 -207 -282 -137 -324 -154 -630 -258 l-195
-66 -176 -4 c-205 -5 -326 10 -540 63 -222 56 -450 153 -599 254 -47 32 -90
56 -96 54 -26 -9 -73 132 -74 220 0 57 14 87 40 87 25 0 29 -8 51 -98 25 -100
50 -134 134 -186 241 -147 599 -225 970 -213 267 9 511 59 770 160 102 39 382
165 501 225 97 49 223 94 327 117 122 27 351 16 522 -24 72 -17 162 -34 201
-37 172 -16 361 59 514 203 30 29 59 52 64 53 5 0 18 -7 28 -17z m-5261 -103
c11 -41 31 -89 45 -107 31 -41 150 -115 238 -148 154 -58 451 -114 688 -131
l87 -6 17 -44 c9 -24 23 -49 30 -55 48 -39 -26 -56 -175 -40 -345 37 -721 158
-859 276 -22 19 -43 35 -46 35 -15 0 -4 -29 25 -65 21 -28 14 -22 -24 17 -68
70 -107 148 -114 227 -6 68 0 103 23 126 25 24 40 4 65 -85z m5350 -77 c8 -10
21 -36 28 -58 7 -22 28 -56 47 -75 39 -41 54 -77 54 -129 0 -175 -205 -311
-592 -394 -99 -21 -125 -22 -653 -22 -302 -1 -577 -4 -610 -8 -33 -4 -132 -14
-220 -22 -88 -9 -243 -28 -345 -42 -170 -25 -211 -27 -505 -28 -338 0 -409 6
-605 51 -256 59 -456 149 -622 278 -37 28 -16 24 35 -6 151 -91 193 -112 316
-158 153 -58 407 -113 608 -132 141 -13 583 2 765 27 58 8 193 23 300 34 106
11 234 25 283 31 50 6 314 12 590 14 530 3 551 4 759 57 102 26 256 94 343
152 52 34 76 59 96 95 47 86 34 92 -42 18 -56 -53 -91 -77 -174 -116 -113 -52
-125 -56 -295 -95 -113 -26 -374 -49 -400 -36 -15 8 95 48 153 55 33 5 28 2
-25 -16 -85 -29 -53 -35 83 -14 56 8 125 18 152 21 69 9 296 88 371 130 110
60 145 85 155 112 15 41 -4 50 -43 20 -52 -40 -272 -140 -388 -176 -58 -18
-119 -39 -137 -47 -35 -16 -77 -19 -69 -5 3 5 21 12 40 15 19 4 39 13 46 21
10 13 8 15 -14 16 -34 2 -39 3 -52 11 -6 4 -43 -1 -82 -11 -40 -10 -72 -16
-72 -13 0 12 38 31 62 32 15 0 30 5 33 10 7 11 58 14 68 3 15 -14 65 -12 117
6 31 11 94 29 140 41 141 36 340 140 340 178 0 9 -56 -10 -80 -27 -14 -10 -54
-29 -90 -43 -36 -14 -108 -41 -160 -61 -158 -61 -291 -84 -303 -53 -8 21 2 26
54 26 38 0 49 4 54 19 6 19 12 21 117 41 115 21 351 110 356 134 5 24 -16 20
-129 -25 -83 -33 -213 -78 -226 -79 -2 0 -3 4 -3 10 0 12 144 84 258 130 45
18 85 37 88 42 12 19 -6 20 -55 3 -84 -28 -94 -15 -26 32 68 46 86 51 106 26z
m-1119 -255 c8 -7 46 -49 83 -93 38 -44 73 -82 78 -84 11 -4 38 8 144 64 28
14 54 33 57 41 7 17 46 19 46 1 0 -11 -233 -137 -253 -137 -4 0 -7 7 -7 15 0
8 -4 15 -10 15 -20 0 -170 161 -170 182 0 12 14 10 32 -4z m-4079 -33 c115
-76 369 -164 577 -200 47 -8 172 -21 279 -30 107 -9 198 -18 204 -22 59 -36
-374 -8 -573 38 -210 48 -426 138 -515 214 -52 44 -39 44 28 0z m4057 -51 c49
-48 92 -95 95 -105 3 -10 15 -21 27 -24 13 -5 17 -10 10 -17 -12 -12 -63 35
-126 115 -21 26 -40 46 -43 44 -2 -3 13 -35 33 -73 50 -91 25 -72 -41 31 -30
46 -59 86 -65 90 -11 7 -4 25 10 25 6 0 50 -39 100 -86z m218 34 c21 -45 91
-51 77 -7 -8 23 17 26 35 5 9 -12 5 -21 -22 -45 -43 -39 -58 -39 -99 4 -33 34
-59 45 -59 25 0 -20 -19 -9 -37 23 l-19 32 55 -5 c49 -4 58 -9 69 -32z m-341
-28 c79 -87 83 -113 4 -30 -65 69 -85 97 -62 88 4 -1 31 -28 58 -58z m-109
-17 c33 -45 56 -92 49 -100 -5 -4 -97 130 -97 140 0 17 18 2 48 -40z m-49 -63
c0 -9 -14 1 -34 24 -19 22 -35 46 -35 55 1 10 13 1 35 -24 19 -22 35 -47 34
-55z m781 80 c0 -5 -7 -10 -15 -10 -8 0 -15 5 -15 10 0 6 7 10 15 10 8 0 15
-4 15 -10z m-292 -58 c2 -8 -3 -10 -15 -5 -19 7 -33 22 -33 37 0 11 43 -18 48
-32z m287 18 c-3 -5 -11 -10 -16 -10 -6 0 -29 -13 -52 -28 -151 -103 -202
-132 -231 -132 l-31 0 41 19 c22 10 68 40 103 66 34 26 83 58 109 71 49 24 88
31 77 14z m-1172 -117 c-7 -2 -19 -2 -25 0 -7 3 -2 5 12 5 14 0 19 -2 13 -5z"/>
<path d="M6166 8691 c-48 -26 -79 -62 -41 -48 9 4 29 10 43 13 32 8 50 21 63
46 13 25 -4 22 -65 -11z"/>
<path d="M5930 8696 c0 -14 31 -46 44 -46 5 0 5 8 2 18 -5 14 -3 14 9 -2 9
-13 19 -16 24 -10 6 5 -7 17 -35 30 -30 15 -44 18 -44 10z"/>
<path d="M6858 7693 c34 -2 90 -2 125 0 34 2 6 3 -63 3 -69 0 -97 -1 -62 -3z"/>
<path d="M2396 7642 c-9 -28 9 -67 41 -90 94 -66 428 -190 584 -217 202 -34
442 -39 564 -13 53 12 315 144 315 159 0 12 -13 12 -25 0 -17 -16 -219 -99
-282 -115 -77 -20 -203 -20 -363 -1 -226 28 -482 113 -690 229 -119 67 -136
73 -144 48z"/>
<path d="M6622 7618 c11 -34 257 -71 468 -71 146 0 417 26 433 42 6 6 -109 9
-319 8 -264 -1 -352 2 -444 16 -138 20 -143 20 -138 5z"/>
<path d="M2386 7521 c-4 -5 0 -26 6 -47 11 -33 23 -43 92 -80 93 -49 343 -136
466 -161 63 -13 136 -17 282 -18 168 0 195 -2 185 -14 -17 -21 66 -9 169 23
100 32 318 165 300 184 -2 2 -57 -24 -121 -59 -119 -63 -287 -125 -293 -108
-2 5 -34 9 -71 9 -151 0 -449 52 -603 106 -57 20 -169 67 -249 105 -81 38
-149 69 -152 69 -3 0 -8 -4 -11 -9z"/>
<path d="M6520 7495 c0 -26 182 -60 410 -77 145 -10 181 -10 290 5 117 16 237
44 227 53 -2 2 -42 -1 -88 -7 -104 -15 -498 -5 -684 16 -147 16 -155 17 -155
10z"/>
<path d="M6445 7381 c-8 -14 2 -18 126 -50 153 -39 278 -55 434 -55 131 0 167
6 413 70 57 15 91 34 60 34 -19 0 -162 -28 -240 -46 -55 -14 -104 -16 -275
-11 -181 5 -227 9 -353 36 -165 35 -157 34 -165 22z"/>
<path d="M6107 7223 c-3 -4 -12 -43 -21 -85 -16 -75 -15 -78 5 -118 21 -39 47
-50 41 -17 -2 9 2 26 8 36 7 15 6 43 -4 101 -14 82 -20 98 -29 83z"/>
<path d="M7185 7197 c-70 -18 -111 -21 -322 -21 -229 -1 -241 -2 -226 -18 15
-17 14 -18 -10 -18 -14 0 -28 -4 -31 -9 -10 -15 140 -24 279 -17 151 8 308 37
383 71 90 41 58 46 -73 12z"/>
<path d="M6020 6920 c-12 -7 -12 -12 -2 -22 17 -17 582 -26 582 -9 0 8 -52 11
-174 11 -152 0 -241 6 -361 25 -16 3 -37 0 -45 -5z"/>
<path d="M5976 6832 c-16 -26 17 -32 230 -38 165 -5 238 -3 294 7 l75 13 -115
7 c-238 14 -479 20 -484 11z"/>
<path d="M6775 8442 l-40 -24 35 6 c37 7 55 19 49 33 -2 5 -22 -2 -44 -15z"/>
<path d="M7343 8184 c-60 -28 -69 -47 -20 -38 42 8 77 31 77 49 0 8 -1 15 -2
14 -2 0 -27 -12 -55 -25z"/>
<path d="M3880 6920 c-174 -32 -447 -146 -418 -175 3 -3 39 5 79 19 219 74
345 102 505 111 152 10 284 -7 434 -53 133 -42 411 -141 445 -160 68 -36 395
-143 432 -142 9 1 -168 69 -179 70 -3 0 -123 52 -265 116 -257 116 -429 183
-533 211 -33 9 -122 16 -225 19 -138 3 -190 0 -275 -16z"/>
<path d="M3215 6669 l-60 -29 43 5 c53 7 112 30 112 44 0 18 -32 11 -95 -20z"/>
<path d="M8411 6120 c-74 -54 -143 -183 -196 -366 -37 -130 -72 -310 -62 -320
9 -9 129 80 175 130 87 95 160 289 169 451 8 143 -7 161 -86 105z"/>
<path d="M7455 5856 c-39 -17 -84 -68 -134 -155 -47 -81 -51 -90 -97 -236 -59
-186 -105 -438 -111 -605 -6 -169 3 -218 51 -266 41 -41 64 -37 120 20 65 66
108 169 160 376 89 362 109 480 110 635 0 150 -12 207 -49 231 -16 10 -26 10
-50 0z"/>
<path d="M7687 5194 c-3 -3 -3 -13 0 -21 5 -12 7 -12 14 -1 15 23 4 40 -14 22z"/>
<path d="M7798 4113 c7 -3 16 -2 19 1 4 3 -2 6 -13 5 -11 0 -14 -3 -6 -6z"/>
<path d="M3470 4933 c-51 -42 -117 -150 -160 -260 -52 -132 -130 -446 -115
-461 20 -20 169 108 229 196 68 99 127 277 133 403 7 120 1 149 -31 149 -14 0
-39 -12 -56 -27z"/>
<path d="M3922 3998 c-17 -22 -44 -80 -39 -84 2 -3 13 10 24 28 31 53 41 87
15 56z"/>
<path d="M3799 3788 c-7 -12 -19 -34 -28 -48 -15 -24 -15 -24 2 -11 21 17 51
70 44 78 -3 2 -11 -6 -18 -19z"/>
<path d="M8100 2965 c-118 -120 -295 -212 -426 -222 -126 -10 -301 38 -422
116 -31 20 -63 40 -69 45 -25 15 -12 -12 28 -58 78 -88 241 -161 387 -173 115
-8 219 22 332 98 96 64 191 152 215 200 28 53 12 51 -45 -6z"/>
<path d="M5573 2303 c9 -2 23 -2 30 0 6 3 -1 5 -18 5 -16 0 -22 -2 -12 -5z"/>
<path d="M5513 2293 c9 -2 23 -2 30 0 6 3 -1 5 -18 5 -16 0 -22 -2 -12 -5z"/>
<path d="M5458 2283 c7 -3 16 -2 19 1 4 3 -2 6 -13 5 -11 0 -14 -3 -6 -6z"/>
<path d="M5283 2243 c9 -2 25 -2 35 0 9 3 1 5 -18 5 -19 0 -27 -2 -17 -5z"/>
<path d="M5558 2241 c-26 -4 -50 -10 -54 -14 -11 -11 52 -7 136 8 l75 13 -55
0 c-30 -1 -76 -4 -102 -7z"/>
<path d="M5290 2191 c-84 -5 -91 -7 -60 -16 34 -9 529 -9 539 0 2 3 2 7 0 9
-8 7 -386 13 -479 7z"/>
<path d="M5252 2099 c29 -15 164 -29 280 -28 141 2 260 12 238 21 -21 9 -534
16 -518 7z"/>
<path d="M5360 1993 c54 -19 290 -23 330 -5 20 9 1 11 -96 11 -67 1 -157 3
-200 6 l-79 5 45 -17z"/>
<path d="M4065 2390 c26 -11 168 -11 220 -1 29 6 0 9 -100 9 -87 0 -132 -3
-120 -8z"/>
<path d="M4065 2325 c110 -14 243 -17 290 -5 24 6 16 8 -35 9 -36 1 -130 3
-210 6 l-145 4 100 -14z"/>
<path d="M3945 2258 c41 -14 414 -23 426 -11 9 9 -255 24 -396 22 -54 -1 -57
-2 -30 -11z"/>
<path d="M4010 2181 c34 -22 183 -44 258 -37 134 11 110 23 -60 29 -89 4 -174
9 -188 12 -19 5 -21 4 -10 -4z"/>
<path d="M7345 2064 c-136 -32 -203 -57 -370 -139 -198 -97 -323 -156 -388
-182 -21 -9 -36 -17 -34 -20 6 -5 83 26 188 75 135 65 272 121 429 175 200 70
276 73 625 27 33 -4 62 -6 63 -4 2 1 -40 17 -95 35 -90 29 -110 32 -248 35
-82 2 -159 1 -170 -2z"/>
</g>
</svg>
